# xmcd
#
# Track frame offsets:
#	150
#	12293
#	26704
#	40328
#	55566
#	68283
#	82300
#	97824
#	110615
#	125898
#	138095
#	148151
#	165242
#	178027
#	191392
#
# Disc length: 2744 seconds
#
# Revision: 1
# Processed by: cddbd v1.5.1PL2 Copyright (c) Steve Scherf et al.
# Submitted via: EasyCDDAExtractor 5.0.6
#
DISCID=c40ab60f
DTITLE=Various Artist - Jóias Sertanejas
DYEAR=2001
DGENRE=Country
TTITLE0=Nenete and Dorinho - Flor do Campo
TTITLE1=Palmeira - Disco Voador
TTITLE2=Nhô Belarmino and Nhá Gabriela - Paranaguá
TTITLE3=Silveira and Barrinha - Linda Cigana
TTITLE4=Luizinho and Limeira - Pé na Tábua
TTITLE5=Campanha and Cuiabano - Um Berrante na Solidão
TTITLE6=Duo Ciriema - Mais uma Lição
TTITLE7=Silveira and Barrinha - Grinalda Branca
TTITLE8=Luizinho and Limeira - O Menino da Porteira
TTITLE9=Duo Ciriema - Não Beba Mais Não
TTITLE10=Campanha and Cuiabano - Lá na Fazenda
TTITLE11=Palmeira and Biá - Couro de Boi
TTITLE12=Nhô Belarmino and Nhá Gabriela - Mocinhas da Cidade
TTITLE13=Nenete and Dorinho - Recordação
TTITLE14=Pedro Bento and Zé da Estrada - Recordação
EXTD=
EXTT0=
EXTT1=
EXTT2=
EXTT3=
EXTT4=
EXTT5=
EXTT6=
EXTT7=
EXTT8=
EXTT9=
EXTT10=
EXTT11=
EXTT12=
EXTT13=
EXTT14=
PLAYORDER=
